<svg xmlns="http://www.w3.org/2000/svg" width="16" height="16"><path fill="#e0e0e0" d="M6 1a2 2 0 0 0-2 2v7H1v3a2 2 0 0 0 2 2h3.666a3.161 3.161 0 0 1-.744-.611c-.592-.665-.877-1.534-.877-2.395 0-.86.285-1.73.877-2.394.592-.666 1.498-1.104 2.623-1.104H12V5h3V3a2 2 0 0 0-2-2H6z"/><path fill-opacity=".2" d="M6 1a2 2 0 0 0-2 2v7H1v3a2 2 0 1 0 4 0V3a1 1 0 0 1 2 0v3h5V5H8V3a2 2 0 0 0-2-2ZM2 11h2v2a1 1 0 0 1-2 0z"/><path fill="#5fff97" d="M8.544 8.995c-4.003 0-4.003 6.005 0 6.005h1v-2.002h-1c-1.334 0-1.334-2.001 0-2.001h1V8.995zm2.453 0v.951h-.952v1.05h.952v.952h-.952v1.05h.952v.952h1.05v-.952h.951v.952h1.05v-.952H15v-1.05h-.952v-.951H15v-1.05h-.952v-.952h-1.05v.951h-.951v-.951Zm1.05 2.002h.951v.951h-.951z"/></svg>
